<svg id="visual" viewBox="0 0 900 600" width="900" height="600" xmlns="http://www.w3.org/2000/svg" xmlns:xlink="http://www.w3.org/1999/xlink" version="1.1"><rect x="0" y="0" width="900" height="600" fill="#fff"></rect><g transform="translate(450.58556867244147 308.1207749300616)"><path d="M159.6 -194.3C190.6 -164.1 188.4 -98.5 195.5 -37.5C202.6 23.5 219.1 79.7 197.8 111.8C176.4 143.9 117.3 151.8 64.4 166.6C11.5 181.4 -35.1 203 -87.1 200.8C-139.1 198.6 -196.4 172.5 -207.4 130.8C-218.4 89 -183.1 31.5 -165 -21.8C-146.9 -75.1 -146.1 -124.1 -121.5 -155.4C-96.8 -186.8 -48.4 -200.4 7.9 -209.8C64.3 -219.3 128.6 -224.5 159.6 -194.3" fill="#55b24a"></path></g></svg>