<svg id="visual" viewBox="0 0 960 540" width="960" height="540" xmlns="http://www.w3.org/2000/svg" xmlns:xlink="http://www.w3.org/1999/xlink" version="1.1"><rect x="0" y="0" width="960" height="540" fill="#59ab4e"></rect><path d="M0 420L20 428C40 436 80 452 120 445C160 438 200 408 240 384.8C280 361.7 320 345.3 360 337C400 328.7 440 328.3 480 342C520 355.7 560 383.3 600 396.7C640 410 680 409 720 417.7C760 426.3 800 444.7 840 430.8C880 417 920 371 940 348L960 325L960 541L940 541C920 541 880 541 840 541C800 541 760 541 720 541C680 541 640 541 600 541C560 541 520 541 480 541C440 541 400 541 360 541C320 541 280 541 240 541C200 541 160 541 120 541C80 541 40 541 20 541L0 541Z" fill="#1d8126" stroke-linecap="round" stroke-linejoin="miter"></path></svg>