<svg id="visual" viewBox="0 0 960 540" width="960" height="540" xmlns="http://www.w3.org/2000/svg" xmlns:xlink="http://www.w3.org/1999/xlink" version="1.1"><rect x="0" y="0" width="960" height="540" fill="#59ab4e"></rect><path d="M0 409L32 409.7C64 410.3 128 411.7 192 397.8C256 384 320 355 384 348.5C448 342 512 358 576 368.2C640 378.3 704 382.7 768 382.8C832 383 896 379 928 377L960 375L960 541L928 541C896 541 832 541 768 541C704 541 640 541 576 541C512 541 448 541 384 541C320 541 256 541 192 541C128 541 64 541 32 541L0 541Z" fill="#1d8126" stroke-linecap="round" stroke-linejoin="miter"></path></svg>